<svg width="48" height="48" viewBox="0 0 48 48" fill="none" xmlns="http://www.w3.org/2000/svg">
<path d="M13 35L10 38H16V44L24 36L32 44V38H38L35 35" stroke="#4D4D4D" stroke-width="2" stroke-linecap="round" stroke-linejoin="round"/>
<path d="M20.7795 6.50907C22.3256 4.23741 25.6744 4.23741 27.2205 6.50907C28.4075 8.25314 30.436 9.23001 32.5397 9.07066C35.2797 8.8631 37.3676 11.4813 36.5556 14.1064C35.9321 16.1219 36.4331 18.3169 37.8693 19.8623C39.74 21.8751 38.9948 25.1399 36.4361 26.1418C34.4716 26.9109 33.0678 28.6712 32.7551 30.7576C32.3477 33.4751 29.3306 34.9281 26.9519 33.5522C25.1257 32.4959 22.8743 32.4959 21.0481 33.5522C18.6694 34.9281 15.6523 33.4751 15.2449 30.7576C14.9322 28.6712 13.5284 26.9109 11.5639 26.1418C9.0052 25.1399 8.26003 21.8751 10.1307 19.8623C11.5669 18.3169 12.0679 16.1219 11.4444 14.1064C10.6324 11.4813 12.7203 8.8631 15.4603 9.07066C17.564 9.23001 19.5925 8.25314 20.7795 6.50907Z" stroke="#4D4D4D" stroke-width="2"/>
<path d="M23.0633 13.5049C23.3873 12.6386 24.6127 12.6386 24.9367 13.5049L25.99 16.322C26.1306 16.6978 26.4822 16.9533 26.883 16.9708L29.8877 17.1021C30.8118 17.1425 31.1904 18.3079 30.4666 18.8837L28.1129 20.7561C27.7989 21.0059 27.6646 21.4192 27.7718 21.8059L28.5755 24.7041C28.8226 25.5954 27.8312 26.3156 27.0599 25.8052L24.5519 24.1453C24.2173 23.9238 23.7827 23.9238 23.4481 24.1453L20.9401 25.8052C20.1688 26.3156 19.1774 25.5954 19.4245 24.7041L20.2282 21.8059C20.3354 21.4192 20.2011 21.0059 19.8871 20.7561L17.5334 18.8837C16.8095 18.3079 17.1882 17.1425 18.1123 17.1021L21.117 16.9708C21.5178 16.9533 21.8694 16.6978 22.01 16.322L23.0633 13.5049Z" stroke="#4D4D4D" stroke-width="2"/>
</svg>
