<svg width="48" height="48" viewBox="0 0 48 48" fill="none" xmlns="http://www.w3.org/2000/svg">
<path fill-rule="evenodd" clip-rule="evenodd" d="M11.3371 8.21253C14.6239 5.45992 19.1138 4 24 4C28.8862 4 33.3761 5.45992 36.6629 8.21253C39.967 10.9797 42 15.0108 42 20C42 20.7644 41.9523 21.5181 41.8596 22.2583C41.8486 23.1552 41.5322 24.0761 41.0672 24.9566C40.5887 25.8624 39.918 26.7911 39.1313 27.703C37.5578 29.5268 35.4517 31.3622 33.2726 32.9067C32.822 33.2261 32.1978 33.1197 31.8785 32.6691C31.5591 32.2186 31.6655 31.5944 32.1161 31.275C34.1957 29.8011 36.1723 28.0711 37.617 26.3966C38.3393 25.5593 38.9115 24.7556 39.2987 24.0225C39.659 23.3403 39.831 22.7723 39.8565 22.3256C39.3503 20.2981 37.5744 18.8333 35.5 18.8333C33.0426 18.8333 31 20.8943 31 23.5C31 24.8131 30.4982 26.7765 29.7571 28.6356C29.5527 29.1487 28.971 29.3988 28.458 29.1943C27.9449 28.9898 27.6948 28.4081 27.8993 27.8951C28.605 26.1245 29 24.4386 29 23.5C29 20.9758 26.816 18.8333 24 18.8333C21.184 18.8333 19 20.9758 19 23.5C19 24.7337 19.3414 26.3371 19.9356 27.9124C20.1306 28.4292 19.8697 29.0061 19.3529 29.201C18.8362 29.3959 18.2593 29.1351 18.0644 28.6183C17.4147 26.8962 17 25.0468 17 23.5C17 20.8943 14.9574 18.8333 12.5 18.8333C10.4253 18.8333 8.64934 20.2985 8.14331 22.3263C8.16906 22.7741 8.34188 23.3426 8.7038 24.025C9.09287 24.7585 9.66776 25.5621 10.3935 26.3991C11.8448 28.0731 13.83 29.8013 15.9166 31.2739C16.3678 31.5923 16.4755 32.2162 16.157 32.6675C15.8386 33.1187 15.2146 33.2264 14.7634 32.9079C12.5779 31.3656 10.463 29.5324 8.88232 27.7093C8.09201 26.7977 7.4179 25.8688 6.93697 24.9621C6.46906 24.08 6.1508 23.1567 6.14017 22.2564C6.04763 21.5169 6 20.7638 6 20C6 15.0108 8.03296 10.9797 11.3371 8.21253ZM8.05894 18.6322C9.21712 17.5192 10.7755 16.8333 12.5 16.8333C14.3077 16.8333 15.9317 17.5856 17.1043 18.7942C17.1952 17.4149 17.3438 16.0908 17.5431 14.8423C17.6302 14.2969 18.1429 13.9254 18.6883 14.0125C19.2337 14.0996 19.6052 14.6123 19.5181 15.1577C19.3384 16.2833 19.2014 17.4785 19.1136 18.726C20.3834 17.55 22.1156 16.8333 24 16.8333C25.8844 16.8333 27.6166 17.55 28.8864 18.726C28.6555 15.4458 28.0856 12.5389 27.2997 10.312C26.7786 8.83558 26.1812 7.71187 25.5677 6.97663C24.9495 6.23577 24.415 6 24 6C23.5408 6 22.9325 6.29265 22.2393 7.22153C21.5583 8.1341 20.9151 9.51267 20.3831 11.2872C20.2245 11.8162 19.667 12.1165 19.138 11.9579C18.609 11.7993 18.3087 11.2418 18.4673 10.7128C18.9936 8.95741 19.6563 7.43754 20.4443 6.29349C17.3982 6.81109 14.7068 7.99927 12.6212 9.74584C10.0746 11.8786 8.38796 14.877 8.05894 18.6322ZM35.5 16.8333C33.6923 16.8333 32.0683 17.5856 30.8957 18.7942C30.6644 15.2849 30.0591 12.1211 29.1856 9.64636C28.7276 8.34869 28.1836 7.205 27.5557 6.29348C30.6018 6.81109 33.2932 7.99927 35.3788 9.74584C37.9254 11.8786 39.612 14.877 39.9411 18.6322C38.7829 17.5192 37.2245 16.8333 35.5 16.8333Z" fill="#323232"/>
<path fill-rule="evenodd" clip-rule="evenodd" d="M21 30C18.7909 30 17 31.7909 17 34V40C17 42.2091 18.7909 44 21 44H27C29.2091 44 31 42.2091 31 40V34C31 31.7909 29.2091 30 27 30H21ZM19 34C19 32.8954 19.8954 32 21 32H27C28.1046 32 29 32.8954 29 34V40C29 41.1046 28.1046 42 27 42H21C19.8954 42 19 41.1046 19 40V34Z" fill="#323232"/>
</svg>
