<?xml version="1.0" encoding="UTF-8"?>
<svg width="190px" height="80px" viewBox="0 0 190 80" version="1.1" xmlns="http://www.w3.org/2000/svg" xmlns:xlink="http://www.w3.org/1999/xlink">
    <!-- Generator: Sketch 53 (72520) - https://sketchapp.com -->
    <title>brands / Victorinox-m</title>
    <desc>Created with Sketch.</desc>
    <g id="brands-/-Victorinox-m" stroke="none" stroke-width="1" fill="none" fill-rule="evenodd">
        <g id="victorinox" transform="translate(38.000000, 13.000000)">
            <path d="M47.6600115,12.678558 C47.6600115,9.6857044 47.1545061,6.80700216 46.287703,4.10085076 L46.304522,4.06098342 C47.0028234,3.7219553 48.4234088,2.99032733 49.8533381,2.22163518 C51.4033367,1.38815862 53.1042394,0.599065609 53.9691738,0.426047585 C55.0926229,0.201326604 56.1397635,0.541600577 56.7681413,1.50511319 C57.3957404,0.541133381 58.4422581,0.201326604 59.5657073,0.426047585 C60.4312646,0.599065609 62.1321673,1.38753569 63.6823216,2.22163518 C65.1122509,2.99048306 66.5328363,3.72133237 67.2283345,4.05709012 L67.246088,4.09695746 C66.3813093,6.80575631 65.8756482,9.6857044 65.8756482,12.678558 C65.8756482,15.5434001 66.4232012,18.2849027 67.2207037,20.8904513 L67.2004585,20.9309416 C62.4350656,22.69585 59.5358068,24.9114463 56.7963288,27.7658544 L56.7485191,27.7658544 C54.0045249,24.9114463 51.1336092,22.7062841 46.3367585,20.9348349 L46.3171363,20.8943446 C47.1133929,18.2849027 47.6600115,15.5435559 47.6600115,12.678558" id="Path" fill="#FFFFFF"/>
            <path d="M46.3190093,4.09103133 L46.3331956,4.12084545 L46.5494105,4.21391605 L46.5662295,4.17323797 L46.3509796,4.08058272 L46.3190093,4.09103133 Z M47.9440551,12.678558 C47.9440551,15.290357 47.5015685,17.9240338 46.6570895,20.751117 C50.8833896,22.3417271 53.7676851,24.2964645 56.7722891,27.3819232 C59.7604913,24.3091719 62.6711988,22.3363567 66.8805702,20.7473024 C66.035092,17.9251563 65.5916046,15.2906139 65.5916046,12.678558 C65.5916046,9.8310718 66.0440801,6.99767805 66.9101038,4.21791546 C66.1236086,3.83103374 64.7952668,3.14254548 63.5477315,2.47176766 C61.8465116,1.55638354 60.2715275,0.856798153 59.5099943,0.704573728 C58.4551347,0.493572547 57.5475423,0.828569853 57.0061815,1.6600893 L56.7683465,2.02539916 L56.5302234,1.66027704 C55.9880057,0.828876498 55.0795239,0.493617047 54.0248889,0.704573284 C53.2646964,0.856639158 51.6916938,1.55560639 49.9878309,2.47182001 C48.7456164,3.1396016 47.4161353,3.82944143 46.6236216,4.22092389 C47.4910305,6.99606737 47.9440551,9.82901264 47.9440551,12.678558 Z M67.2140291,4.08672274 L67.1836035,4.07700942 L66.9688559,4.1726392 L66.9866093,4.21250654 L67.1989558,4.11794598 L67.2140291,4.08672274 Z M67.1890507,20.9001396 L67.1774535,20.8688263 L66.9666474,20.7634232 L66.9464023,20.8039135 L67.1579147,20.9096697 L67.1890507,20.9001396 Z M56.7995837,27.7428931 L56.8399895,27.7198941 L56.8399895,27.4818108 L56.7592443,27.4818108 L56.7592443,27.7199697 L56.7995837,27.7428931 Z M46.3482097,20.9038265 L46.380446,20.9136632 L46.5923683,20.8109625 L46.5727461,20.7704722 L46.3592478,20.8739367 L46.3482097,20.9038265 Z M56.7679676,1.03218167 C57.4561335,0.230535134 58.4872019,-0.0793536792 59.6213839,0.147514176 C60.4561088,0.314369041 62.0668413,1.02983333 63.8168354,1.97146172 C65.1674859,2.69768272 66.6136855,3.44495237 67.3518222,3.80129423 L67.4454977,3.84651688 L67.5495861,4.08025913 L67.5166769,4.18334245 C66.6254536,6.97497556 66.1596917,9.82042594 66.1596917,12.678558 C66.1596917,15.2990604 66.6177342,17.949963 67.4923095,20.8073186 L67.5255461,20.9159072 L67.4043332,21.1583331 L67.2991084,21.197304 C62.967901,22.8014078 60.0483115,24.7876514 57.0012612,27.9625354 L56.9174163,28.0498979 L56.6275697,28.0498979 L56.5437486,27.962704 C53.4782181,24.7738216 50.5879226,22.8075585 46.2383583,21.2012897 L46.13104,21.1616576 L46.0129504,20.9179808 L46.0454596,20.811444 C46.9189914,17.9487607 47.375968,15.2987637 47.375968,12.678558 C47.375968,9.8185368 46.9097041,6.97389412 46.0171972,4.18749602 L45.9851166,4.08734068 L46.0843465,3.85212904 L46.1804657,3.8054628 C46.9269962,3.44301927 48.3744047,2.69418608 49.7188156,1.9714664 C51.4715321,1.02898284 53.0800529,0.314233031 53.9134608,0.147521441 C55.0474235,-0.0793025412 56.0790578,0.230758709 56.7679676,1.03218167 Z" id="Path" fill="#636363" fill-rule="nonzero"/>
            <path d="M62.2928825,3.62804903 C61.0917231,3.0303504 59.8499178,2.46006056 59.1822956,2.32690988 C57.9137044,2.07291132 56.9466099,3.08329921 56.7929027,3.69470224 L56.7609776,3.82131218 L56.7288969,3.69470224 C56.5747224,3.08329921 55.6294304,2.07275559 54.3617736,2.32690988 C53.6929056,2.46083922 52.4525018,3.03050613 51.2511867,3.62867195 C50.0707397,4.21593655 48.9343648,4.82733958 48.4274578,5.07090411 C49.1139236,7.32574477 49.482385,9.67978659 49.4948435,12.176323 L51.1951233,12.176323 L51.1951233,10.8934045 L55.0494852,10.8934045 L55.0494852,7.03966547 L58.417964,7.03966547 L58.417964,10.8934045 L62.2712358,10.8934045 L62.2712358,12.1757001 L64.0506273,12.1757001 C64.0630858,9.67978659 64.4301456,7.32512185 65.1173901,5.07028118 C64.6090815,4.82718385 63.4731738,4.21593655 62.2928825,3.62804903 M56.7616006,25.2428435 C59.0746849,23.059328 61.9524528,20.9409084 65.0826619,19.8565479 C64.769641,18.7756136 64.4550627,17.2751377 64.2727008,15.7897678 C64.1048219,14.4278933 64.0630858,13.1762769 64.046111,12.9803663 L62.2713915,12.9803663 L62.2713915,14.2625061 L58.4182754,14.2625061 L58.4182754,18.1164009 L55.0497967,18.1164009 L55.0497967,14.2625061 L51.1951233,14.2625061 L51.1951233,12.9803663 L49.4876799,12.9803663 C49.4300591,15.2802134 49.0429099,17.8152156 48.4489488,19.8571709 C51.578535,20.9409084 54.448049,23.0591723 56.7616006,25.2428435" id="Shape" fill="#636363" fill-rule="nonzero"/>
            <path d="M6.39669214,44.856173 L9.00940447,37.7730238 C9.16669358,37.3006893 8.94602163,36.9544975 8.09619322,36.8285105 L8.09619322,36.1995097 L11.9996107,36.1995097 L11.9996107,36.8285105 C11.3072271,36.8599683 10.7409863,36.9859553 10.4260966,37.8357837 L6.55413699,47.9734564 L5.70368565,47.9734564 L1.39069358,37.7731795 C1.01304398,36.8914261 0.351962509,36.860124 0.0372285508,36.860124 L0.0372285508,36.1996655 L4.53912329,36.1996655 L4.53912329,36.8286662 C3.81543764,36.9548089 3.62591204,37.3637606 3.72059697,37.6471925 L6.39669214,44.856173 L6.39669214,44.856173 Z M17.1312848,46.1468782 C17.1312848,46.5251507 17.3206547,46.7138976 17.6981485,46.8711867 C17.9183533,46.9652487 18.233243,47.0607123 18.4540707,47.0912358 L18.4540707,47.689713 L13.8261889,47.689713 L13.8261889,47.0912358 C13.983478,47.0607123 14.4872704,46.9337909 14.6447152,46.8398846 C14.9281471,46.6824398 15.1481961,46.5251507 15.1481961,46.1155761 L15.1481961,37.7417217 C15.1481961,37.1120981 14.3611276,36.8599683 13.8260332,36.7972084 L13.8260332,36.1995097 L18.4540707,36.1995097 L18.4540707,36.7972084 C17.824447,36.9233511 17.1314405,37.0487152 17.1314405,37.7731795 L17.1314405,46.1468782 L17.1312848,46.1468782 Z M29.2518904,36.199354 L29.3144946,39.409765 L28.716796,39.409765 C28.5593511,38.7801413 28.402062,38.2450469 28.1184744,37.8677087 C27.7088998,37.3321471 27.1105782,37.0804845 26.2294477,37.0804845 C23.30169,37.0804845 23.0182581,40.0082422 23.0182581,41.8964903 C23.0182581,43.8169748 23.3646056,46.8078039 26.4494968,46.7451997 C27.3940101,46.7138976 28.810858,46.1781802 29.7553713,44.9510137 L29.8500562,44.8248709 L30.479057,45.2970497 L30.4477549,45.3596539 C29.3778774,47.2494593 27.3312502,47.9418428 26.0405451,47.9418428 C22.3886345,47.9418428 20.5307541,44.6987282 20.5307541,41.9911752 C20.5307541,39.7880375 21.8849978,35.978682 25.3796193,35.978682 C26.7329286,35.978682 27.7402019,36.293416 28.5906532,36.7336698 L28.716796,36.199354 L29.2518904,36.199354 L29.2518904,36.199354 Z M36.9959654,37.426832 L36.9959654,46.0535948 C36.9959654,46.4617678 37.2793973,46.7766575 37.7201182,46.9339466 C37.9404787,47.0286316 38.1918298,47.0607123 38.4754174,47.0913915 L38.4754174,47.6898688 L33.658633,47.6898688 L33.658633,47.0913915 C33.9420649,47.0608681 34.1624254,47.0287873 34.5092401,46.9026446 C34.8555876,46.7765018 35.1382408,46.4617678 35.1382408,46.0208911 L35.1069387,37.426832 L33.5961846,37.426832 C32.6829733,37.426832 32.3993857,37.8049488 32.2420966,38.2139005 C32.1167325,38.560248 32.0846518,38.9062841 32.0846518,39.2524758 L31.423726,39.2217967 L31.423726,36.1995097 L40.7107916,36.1995097 L40.7107916,39.2524758 L40.0184081,39.2524758 C39.987106,38.780297 39.9237231,38.3713453 39.7661226,38.0564557 C39.5462293,37.6162019 39.2000375,37.426832 38.759005,37.426832 L36.9959654,37.426832 L36.9959654,37.426832 Z M53.0514463,42.0539351 C52.9888421,45.0762221 50.9730497,47.9733006 47.6998789,47.9733006 C44.3620793,47.9733006 42.2223244,45.3285076 42.1589416,41.9913309 C42.0969603,38.874982 44.2367152,35.946757 47.6685768,35.946757 C51.0049748,35.9466013 53.1142062,38.9375862 53.0514463,42.0539351 L53.0514463,42.0539351 Z M44.5827513,41.8651882 C44.5209257,44.2263937 45.3078385,46.7765018 47.636496,46.7765018 C50.0604614,46.7765018 50.658783,44.1637895 50.5954001,41.802584 C50.5334189,39.5046056 50.1551464,37.1120981 47.636496,37.1120981 C45.0237837,37.1119423 44.614832,39.5359077 44.582907,41.8651882 L44.5827513,41.8651882 Z M66.116721,47.689713 L63.3144831,47.689713 L60.8271348,43.376721 L58.8434232,43.376721 L58.8434232,46.1155761 C58.8434232,46.5564528 59.1589358,46.9652487 60.260894,47.0913915 L60.2929748,47.6898688 L55.4434867,47.6898688 L55.4434867,47.0608681 C55.7588435,47.0608681 56.0424311,46.9974852 56.3252401,46.8713425 C56.608049,46.7451997 56.8921038,46.4304658 56.8921038,46.0841182 L56.8921038,37.9304686 C56.8921038,37.1747022 56.1051911,36.8912704 55.3181226,36.7972084 L55.3181226,36.1995097 L60.8271348,36.1995097 C62.7473079,36.1995097 65.0775227,37.4895919 65.0775227,39.6935083 C65.0775227,40.8273915 64.5738861,42.4636655 62.7161615,43.061987 L64.6051882,46.1784917 C64.9200779,46.6827513 65.3296525,47.028943 66.0846402,47.0915472 L66.116721,47.689713 L66.116721,47.689713 Z M60.0719913,37.3634492 C59.9779293,37.3634492 59.5368969,37.3955299 58.8759712,37.4581341 L58.8759712,42.3375227 L60.8269791,42.3375227 C62.2751291,42.2434607 62.8732949,41.4876943 62.8732949,39.7567354 C62.8732949,37.6162019 61.5827455,37.3634492 60.0719913,37.3634492 L60.0719913,37.3634492 Z M71.7830224,46.1468782 C71.7830224,46.5251507 71.971925,46.7138976 72.3494189,46.8711867 C72.5702466,46.9652487 72.8845133,47.0607123 73.105341,47.0912358 L73.105341,47.689713 L68.4766806,47.689713 L68.4766806,47.0912358 C68.635527,47.0607123 69.138385,46.9337909 69.2958298,46.8398846 C69.5792617,46.6824398 69.7993107,46.5251507 69.7993107,46.1155761 L69.7993107,37.7417217 C69.7993107,37.1120981 69.0128652,36.8599683 68.4766806,36.7972084 L68.4766806,36.1995097 L73.105341,36.1995097 L73.105341,36.7972084 C72.4749387,36.9233511 71.7831781,37.0487152 71.7831781,37.7731795 L71.7831781,46.1468782 L71.7830224,46.1468782 Z M86.4529575,47.689713 L86.0122365,47.689713 L78.7401846,39.221641 L78.7401846,46.1155761 C78.7401846,46.3990079 78.9290872,46.6505148 79.2444441,46.8713425 C79.5587109,47.0608681 79.8108407,47.0608681 80.0942725,47.0913915 L80.0942725,47.6898688 L76.2215342,47.6898688 L76.2215342,47.0913915 C76.4102812,47.0608681 76.6622552,47.0287873 76.8826157,46.9339466 C77.2607325,46.8078039 77.5441644,46.5251507 77.5441644,46.1155761 L77.5441644,37.8990108 C77.2607325,37.3319913 76.6315761,36.7970526 75.9066446,36.7970526 L75.9066446,36.199354 L78.896695,36.199354 L85.2250123,43.7229128 L85.2250123,37.7730238 C85.2250123,37.1434001 84.469713,36.7970526 83.903628,36.7970526 L83.903628,36.199354 L87.8065782,36.199354 L87.8065782,36.7970526 C87.1462754,36.8598125 86.4532689,37.0485595 86.4532689,37.741566 L86.4532689,47.689713 L86.4529575,47.689713 Z M100.777012,42.022633 C100.713629,45.04492 98.6998616,47.9419986 95.3941428,47.9419986 C92.0884239,47.9419986 89.9164326,45.2972055 89.8530497,41.9600288 C89.8225263,38.8436799 91.9622812,35.9154549 95.3628407,35.9154549 C98.7317866,35.9152992 100.840395,38.9062841 100.777012,42.022633 L100.777012,42.022633 Z M92.2770151,41.834509 C92.245713,44.1950916 93.0007008,46.7451997 95.3626849,46.7451997 C97.7558154,46.7451997 98.3841932,44.1318645 98.322212,41.7705032 C98.2589849,39.4733035 97.8500332,37.0806402 95.3626849,37.0806402 C92.7499726,37.0485595 92.3083172,39.5046056 92.2770151,41.834509 L92.2770151,41.834509 Z M108.741448,41.4249344 L111.701753,45.8634463 C111.984562,46.304323 112.331377,46.5877549 112.646111,46.7765018 C112.8034,46.8711867 113.213286,47.0912358 113.495939,47.0912358 L113.495939,47.689713 L108.58447,47.689713 L108.58447,47.0912358 C108.616551,47.0912358 109.056026,47.0286316 109.340236,46.9024888 C109.623045,46.7763461 109.717886,46.43031 109.465756,46.1154203 L107.482823,43.1244355 L105.216147,46.1780245 C104.806572,46.6502033 105.153543,47.0284758 105.720407,47.09108 L105.720407,47.6895573 L102.067717,47.6895573 L102.067717,47.0605566 C102.917546,46.9337909 103.232435,46.5875991 103.609774,46.0839625 L106.695443,41.9277924 L103.957211,37.8677087 C103.516335,37.2066273 102.822705,36.7970526 102.162402,36.7970526 L102.162402,36.199354 L107.168557,36.199354 L107.168557,36.7970526 C106.60216,36.8598125 105.783167,37.0485595 106.192585,37.7102639 L107.923389,40.2916741 L109.875175,37.7102639 C110.28475,37.2066273 109.96986,36.8283547 109.340081,36.7970526 L109.340081,36.199354 L113.024072,36.199354 L113.024072,36.7970526 C112.425751,36.8283547 112.110394,37.0804845 111.764046,37.426832 L108.741292,41.4249344 L108.741448,41.4249344 Z" id="Shape" fill="#3F3F3F" fill-rule="nonzero"/>
        </g>
    </g>
</svg>