<svg width="190" height="80" viewBox="0 0 190 80" fill="none" xmlns="http://www.w3.org/2000/svg">
<path d="M45.53 61.7999V61.8999C45.5174 61.9861 45.5222 62.074 45.5443 62.1583C45.5663 62.2426 45.605 62.3216 45.6582 62.3907C45.7114 62.4597 45.7779 62.5173 45.8538 62.5602C45.9297 62.603 46.0134 62.6301 46.1 62.6399H46.21C46.63 62.6399 46.95 62.4799 46.95 61.9599C47 61.0599 45.1 61.1699 45.1 59.8999C45.1006 59.7452 45.1336 59.5924 45.1967 59.4512C45.2599 59.31 45.3518 59.1836 45.4667 59.08C45.5816 58.9765 45.7168 58.8981 45.8637 58.8498C46.0107 58.8016 46.1661 58.7846 46.32 58.7999C47.05 58.7999 47.47 59.1699 47.42 60.0099H46.89C46.89 59.5899 46.74 59.2699 46.26 59.2699C46.1066 59.2587 45.955 59.3079 45.8373 59.4069C45.7196 59.5059 45.6452 59.6469 45.63 59.7999V59.8999C45.63 60.7999 47.47 60.6899 47.47 61.9599C47.47 62.7999 46.89 63.1099 46.21 63.1099C45 63.1099 45 62.2199 45 61.7999H45.53Z" fill="black"/>
<path d="M49.26 59H49.79L50.58 62.52L51.42 59H52.1L52.84 62.52L53.68 59H54.21L53.16 63H52.53L51.74 59.47L50.89 63H50.26L49.26 59Z" fill="black"/>
<path d="M56.74 63H56.21V59H56.74V63Z" fill="black"/>
<path d="M59.58 61.8V61.9C59.5562 62.0664 59.5967 62.2356 59.6933 62.3731C59.79 62.5106 59.9354 62.6061 60.1 62.64H60.21C60.63 62.64 60.89 62.48 60.89 61.96C60.89 61.06 59.05 61.17 59.05 59.9C59.0508 59.7463 59.0834 59.5944 59.146 59.4539C59.2085 59.3135 59.2996 59.1876 59.4133 59.0842C59.5271 58.9808 59.6611 58.9021 59.8068 58.8532C59.9526 58.8043 60.1069 58.7862 60.26 58.8C60.4188 58.7789 60.5804 58.7962 60.7311 58.8505C60.8819 58.9048 61.0173 58.9946 61.1261 59.1122C61.2349 59.2298 61.3139 59.3719 61.3563 59.5264C61.3988 59.6809 61.4034 59.8433 61.37 60H60.84C60.84 59.58 60.68 59.26 60.21 59.26C60.1338 59.2532 60.057 59.2615 59.984 59.2844C59.911 59.3074 59.8432 59.3446 59.7847 59.3939C59.7261 59.4431 59.6779 59.5035 59.6427 59.5715C59.6076 59.6395 59.5863 59.7137 59.58 59.79V59.89C59.58 60.79 61.42 60.68 61.42 61.95C61.42 62.79 60.84 63.1 60.16 63.1C59 63.11 59 62.22 59 61.8H59.58Z" fill="black"/>
<path d="M64.1 61.8V61.9C64.0889 61.9868 64.0951 62.0749 64.1183 62.1593C64.1415 62.2436 64.1812 62.3225 64.2352 62.3914C64.2891 62.4602 64.3563 62.5177 64.4326 62.5604C64.509 62.6031 64.5931 62.6301 64.68 62.64H64.79C65.21 62.64 65.53 62.48 65.53 61.96C65.53 61.06 63.68 61.17 63.68 59.9C63.6808 59.7463 63.7135 59.5944 63.776 59.4539C63.8385 59.3135 63.9296 59.1876 64.0433 59.0842C64.1571 58.9808 64.2911 58.9021 64.4368 58.8532C64.5826 58.8043 64.7369 58.7862 64.89 58.8C65.0488 58.7789 65.2104 58.7962 65.3611 58.8505C65.5119 58.9048 65.6474 58.9946 65.7561 59.1122C65.8649 59.2298 65.9439 59.3719 65.9863 59.5264C66.0288 59.6809 66.0335 59.8433 66 60H65.47C65.47 59.58 65.32 59.26 64.84 59.26C64.6866 59.2488 64.535 59.298 64.4173 59.397C64.2996 59.496 64.2252 59.637 64.21 59.79V59.89C64.21 60.79 66.05 60.68 66.05 61.95C66.05 62.79 65.47 63.1 64.79 63.1C63.58 63.1 63.58 62.21 63.58 61.79L64.1 61.8Z" fill="black"/>
<path d="M70.58 59H71.11L71.84 62.52L72.68 59H73.37L74.11 62.52L75 59H75.52L74.52 63H73.89L73 59.48L72.16 63H71.53L70.58 59Z" fill="black"/>
<path d="M79.11 61.59H77.79L78.42 59.43L79.11 61.59ZM76.84 63H77.37L77.68 62.05H79.26L79.58 63H80.16L78.84 59H78.16L76.84 63Z" fill="black"/>
<path d="M84 59V59.47H83V63.1H82.47V59.43H81.37V59H84Z" fill="black"/>
<path d="M87.7401 60.0601C87.7626 59.8601 87.7243 59.658 87.6301 59.4801C87.5008 59.3667 87.3318 59.3091 87.1601 59.3201C87.0366 59.3157 86.914 59.3428 86.8038 59.3988C86.6936 59.4548 86.5994 59.5378 86.5301 59.6401C86.4356 59.9095 86.3982 60.1955 86.4201 60.4801V61.5901C86.4201 62.5901 86.7401 62.6901 87.1101 62.6901C87.2601 62.6901 87.7401 62.6901 87.7401 61.8501H88.2601C88.2601 63.1101 87.3701 63.1101 87.1101 63.1101C86.5801 63.1101 85.8401 63.1101 85.8401 61.4801V60.3201C85.8401 59.1701 86.3701 58.8501 87.1601 58.8501C87.9501 58.8501 88.2601 59.2701 88.2101 60.0601H87.7401Z" fill="black"/>
<path d="M90.5801 63V59H91.1101V60.78H92.5301V59H93.0501V63H92.5301V61.17H91.1101V63H90.5801Z" fill="black"/>
<path d="M95.4199 63V59H97.5299V59.47H95.9999V60.78H97.4699V61.26H95.9999V62.68H97.6299V63.15L95.4199 63Z" fill="black"/>
<path d="M100.05 61.7999V61.8999C100.039 61.9867 100.045 62.0748 100.068 62.1592C100.092 62.2435 100.131 62.3224 100.185 62.3913C100.239 62.4602 100.306 62.5176 100.383 62.5603C100.459 62.603 100.543 62.63 100.63 62.6399H100.74C101.16 62.6399 101.47 62.4799 101.47 61.9599C101.47 61.0599 99.6301 61.1699 99.6301 59.8999C99.6308 59.7462 99.6635 59.5943 99.7261 59.4538C99.7886 59.3134 99.8796 59.1875 99.9934 59.0841C100.107 58.9807 100.241 58.902 100.387 58.8531C100.533 58.8042 100.687 58.7861 100.84 58.7999C101.58 58.7999 102 59.1699 102 60.0099H101.47C101.47 59.5899 101.32 59.2699 100.84 59.2699C100.687 59.2587 100.535 59.3079 100.417 59.4069C100.3 59.5059 100.225 59.6469 100.21 59.7999V59.8999C100.21 60.7999 102.05 60.6899 102.05 61.9599C102.05 62.7999 101.47 63.1099 100.79 63.1099C99.5801 63.1099 99.5801 62.2199 99.5801 61.7999H100.05Z" fill="black"/>
<path d="M107.32 61.7999V61.8999C107.307 61.9861 107.312 62.074 107.334 62.1583C107.356 62.2426 107.395 62.3216 107.448 62.3907C107.501 62.4597 107.568 62.5173 107.644 62.5602C107.72 62.603 107.803 62.6301 107.89 62.6399H108C108.42 62.6399 108.74 62.4799 108.74 61.9599C108.74 61.0599 106.89 61.1699 106.89 59.8999C106.891 59.7452 106.924 59.5924 106.987 59.4512C107.05 59.31 107.142 59.1836 107.257 59.08C107.372 58.9765 107.507 58.8981 107.654 58.8498C107.801 58.8016 107.956 58.7846 108.11 58.7999C108.84 58.7999 109.26 59.1699 109.21 60.0099H108.68C108.68 59.5899 108.53 59.2699 108.05 59.2699C107.897 59.2587 107.745 59.3079 107.627 59.4069C107.51 59.5059 107.435 59.6469 107.42 59.7999V59.8999C107.42 60.7999 109.26 60.6899 109.26 61.9599C109.26 62.7999 108.68 63.1099 108 63.1099C106.79 63.1099 106.79 62.2199 106.79 61.7999H107.32Z" fill="black"/>
<path d="M112.11 63H111.58V59H112.11V63Z" fill="black"/>
<path d="M117.32 59V63H116.63L115 59.48V63H114.53V59H115.26L116.84 62.47V59H117.32Z" fill="black"/>
<path d="M121.47 60.0601C121.495 59.9618 121.498 59.8594 121.481 59.7596C121.464 59.6597 121.426 59.5645 121.37 59.4801C121.237 59.367 121.065 59.3097 120.89 59.3201C120.767 59.3184 120.645 59.3467 120.536 59.4024C120.426 59.4582 120.331 59.5397 120.26 59.6401C120.174 59.9112 120.14 60.1963 120.16 60.4801V61.5901C120.16 62.5901 120.47 62.6901 120.89 62.6901C121.05 62.6901 121.53 62.6901 121.53 61.8501H122.05C122.05 63.1101 121.16 63.1101 120.89 63.1101C120.37 63.1101 119.63 63.1101 119.63 61.4801V60.3201C119.63 59.1701 120.16 58.8501 120.95 58.8501C121.74 58.8501 122.05 59.2701 121.95 60.0601H121.47Z" fill="black"/>
<path d="M124.26 63V59H126.37V59.47H124.79V60.78H126.26V61.26H124.79V62.68H126.42V63.15L124.26 63Z" fill="black"/>
<path d="M132.37 63.0001H131.84V59.6401L131.26 60.0601V59.5901C131.482 59.4422 131.696 59.282 131.9 59.1101H132.32V63.0001H132.37Z" fill="black"/>
<path d="M136 62.69C135.63 62.69 135.47 62.32 135.47 62.01C135.47 61.7 135.47 61.22 136 61.22C136.53 61.22 136.52 61.69 136.52 62.01C136.52 62.33 136.32 62.69 136 62.69ZM136.26 61C136.489 60.963 136.695 60.8376 136.834 60.6508C136.972 60.4639 137.032 60.2303 137 60C137 59.7348 136.895 59.4804 136.707 59.2929C136.52 59.1054 136.265 59 136 59C135.735 59 135.48 59.1054 135.293 59.2929C135.105 59.4804 135 59.7348 135 60C134.977 60.2074 135.035 60.4157 135.161 60.5815C135.288 60.7473 135.474 60.8578 135.68 60.89V60.89C135.1 60.95 135 61.42 135 61.89C134.977 62.0341 134.985 62.1815 135.025 62.322C135.064 62.4624 135.134 62.5925 135.23 62.703C135.325 62.8136 135.443 62.9019 135.576 62.9619C135.709 63.0218 135.854 63.0519 136 63.05C136.68 63.05 137 62.63 137 61.89C137 61.42 136.85 61 136.21 60.95L136.26 61ZM136 60.74C135.63 60.74 135.52 60.32 135.52 60.06C135.509 59.9199 135.553 59.7809 135.642 59.6726C135.732 59.5643 135.86 59.4952 136 59.48C136.31 59.48 136.47 59.8 136.47 60.06C136.47 60.32 136.37 60.74 136 60.74Z" fill="black"/>
<path d="M140.79 59.1101V59.5901H139.47V60.7401C139.543 60.6402 139.64 60.5597 139.751 60.5056C139.863 60.4516 139.986 60.4257 140.11 60.4301C140.68 60.4301 140.95 60.8501 140.95 61.7401C140.95 62.3801 140.95 63.1101 139.95 63.1101C139.16 63.1101 138.95 62.6901 138.95 62.1701H139.47C139.47 62.4801 139.58 62.7401 139.95 62.7401C140.32 62.7401 140.47 62.2701 140.47 61.9001C140.47 61.3201 140.47 60.9001 139.95 60.9001C139.887 60.8987 139.824 60.9102 139.765 60.9339C139.706 60.9575 139.652 60.9928 139.608 61.0377C139.563 61.0825 139.527 61.136 139.504 61.1948C139.48 61.2537 139.469 61.3167 139.47 61.3801H139V59.1701L140.79 59.1101Z" fill="black"/>
<path d="M143.53 60.74C144 60.8 144.32 60.59 144.32 60.11C144.32 59.63 144.16 59.48 143.79 59.48C143.42 59.48 143.32 59.8 143.32 60.11H142.79C142.758 59.8797 142.818 59.6462 142.956 59.4593C143.095 59.2724 143.3 59.147 143.53 59.11H143.79C143.924 59.0995 144.059 59.1181 144.185 59.1647C144.311 59.2112 144.425 59.2845 144.52 59.3796C144.615 59.4746 144.689 59.5891 144.735 59.7152C144.782 59.8413 144.8 59.976 144.79 60.11C144.8 60.2215 144.786 60.3337 144.752 60.44C144.717 60.5462 144.661 60.6443 144.587 60.7284C144.513 60.8125 144.423 60.8807 144.322 60.9291C144.221 60.9775 144.112 61.0051 144 61.01V61.01C144.63 61.11 144.79 61.43 144.79 62.01C144.79 62.79 144.37 63.11 143.63 63.11C143.484 63.1119 143.339 63.0818 143.206 63.0219C143.073 62.9619 142.955 62.8736 142.86 62.7631C142.764 62.6525 142.694 62.5224 142.655 62.382C142.615 62.2415 142.607 62.0941 142.63 61.95H143.16C143.16 62.32 143.21 62.64 143.69 62.64C144.17 62.64 144.27 62.37 144.27 61.95C144.27 61.32 144 61.16 143.42 61.16L143.53 60.74Z" fill="black"/>
<path d="M94.26 17.53H79.26V32.27H94.26V17.53Z" fill="black" stroke="white" stroke-width="1.4"/>
<path d="M92.42 19.53H81.26V22.01H85.21V30.48H88.58V22.01H92.42V19.53Z" fill="white"/>
<path d="M63.26 36.8501H45V40.6401H51.58V53.2201H56.84V40.6401H63.26V36.8501Z" fill="black"/>
<path d="M70.26 36.8501H64.89V53.2701H70.26V36.8501Z" fill="black"/>
<path d="M145 36.8501H126.74V40.6401H133.32V53.2201H138.58V40.6401H145V36.8501Z" fill="black"/>
<path d="M108.32 45C108.32 39.26 112.58 36.47 117.84 36.47C123.1 36.47 127.37 39.63 127.37 45C127.37 50.37 123.11 53.52 117.84 53.52C112.57 53.52 108.32 51.06 108.32 45ZM117.84 50.63C120.63 50.64 122 48.11 122 45C122 41.89 120.47 39.37 117.89 39.37C114.89 39.37 113.73 41.89 113.73 45C113.73 48.11 114.89 50.63 117.89 50.63H117.84Z" fill="black"/>
<path d="M106.47 42.1099H101.74C101.565 41.2753 101.074 40.5406 100.37 40.0599C99.9294 39.7786 99.4334 39.5955 98.9158 39.523C98.3981 39.4506 97.8709 39.4904 97.37 39.6399C96.58 39.8499 95.68 40.5299 96.05 41.4299C96.186 41.6761 96.3749 41.889 96.6032 42.0533C96.8315 42.2176 97.0934 42.3291 97.37 42.3799C100 43.0599 102.68 43.2199 105.05 44.6899C105.612 45.0335 106.07 45.5225 106.376 46.1052C106.682 46.6879 106.825 47.3426 106.79 47.9999C106.79 53.5699 99.89 54.2599 95.42 53.3599C92.53 52.7799 89.79 50.6299 90 47.5199H95C95.32 48.2099 95.16 48.8899 95.63 49.5199C95.8473 49.8772 96.1586 50.1678 96.53 50.3599C96.8095 50.5337 97.1082 50.6746 97.42 50.7799C98.2286 51.0001 99.0814 51.0001 99.89 50.7799C100.189 50.7016 100.467 50.5578 100.704 50.3589C100.941 50.16 101.131 49.9111 101.26 49.6299C101.37 49.2852 101.37 48.9147 101.26 48.5699C101.214 48.3638 101.126 48.1695 101 47.9999C100.562 47.4652 99.9427 47.1095 99.26 46.9999C96.37 46.1099 92.53 46.4699 90.95 43.4199C90.5201 42.4978 90.4246 41.4548 90.68 40.4699C90.8826 39.7723 91.286 39.1498 91.84 38.6799C92.3132 38.2058 92.8646 37.8168 93.47 37.5299C94.993 36.8713 96.636 36.5357 98.2952 36.5444C99.9545 36.553 101.594 36.9056 103.11 37.5799C104.049 37.9286 104.866 38.5422 105.462 39.3464C106.059 40.1506 106.409 41.1106 106.47 42.1099V42.1099Z" fill="black"/>
<path d="M88.37 42.0599H83.63C83.4295 41.2498 82.9429 40.5395 82.26 40.0599C81.8197 39.778 81.3237 39.5945 80.8059 39.522C80.2882 39.4495 79.7608 39.4897 79.26 39.6399C78.47 39.8499 77.58 40.5299 77.94 41.4299C78.0777 41.6738 78.2673 41.8844 78.4954 42.0468C78.7235 42.2093 78.9845 42.3196 79.26 42.3699C81.89 43.0599 84.58 43.2199 86.94 44.6899C87.5054 45.0205 87.9705 45.4983 88.2857 46.0724C88.6009 46.6465 88.7545 47.2954 88.73 47.9499C88.73 53.5799 81.89 54.2699 77.42 53.3699C74.52 52.7899 71.79 50.6899 72 47.5299H77C77.31 48.2199 77.21 48.8999 77.63 49.5299C77.8462 49.8845 78.1535 50.1746 78.52 50.3699C79.0142 50.6897 79.5761 50.8897 80.1612 50.9539C80.7463 51.0181 81.3383 50.9449 81.89 50.7399C82.1888 50.6573 82.466 50.5108 82.7025 50.3105C82.9391 50.1102 83.1293 49.8609 83.26 49.5799C83.3389 49.4161 83.3799 49.2367 83.3799 49.0549C83.3799 48.8731 83.3389 48.6937 83.26 48.5299C83.2072 48.3385 83.119 48.1588 83 47.9999C82.5481 47.456 81.9101 47.0996 81.21 46.9999C78.32 46.0999 74.47 46.4699 72.89 43.4199C72.4643 42.4964 72.3724 41.4537 72.63 40.4699C72.8326 39.7723 73.236 39.1498 73.79 38.6799C74.2637 38.2037 74.8149 37.8115 75.42 37.5199C76.9423 36.8643 78.5839 36.5312 80.2413 36.5415C81.8987 36.5518 83.536 36.9054 85.05 37.5799C85.9758 37.9281 86.7814 38.5359 87.3703 39.3306C87.9592 40.1252 88.3063 41.0729 88.37 42.0599V42.0599Z" fill="black"/>
<path d="M111.1 17.48H96.05V32.32H111.1V17.48Z" fill="#4C4C4C" stroke="white" stroke-width="1.4"/>
<path d="M109.11 23.2199H105.26V19.3799H102V23.2199H98.1599V26.5299H102V30.3199H105.26V26.5299H109.11V23.2199Z" fill="white"/>
</svg>
