<?xml version="1.0" encoding="UTF-8"?>
<svg width="190px" height="80px" viewBox="0 0 190 80" version="1.1" xmlns="http://www.w3.org/2000/svg" xmlns:xlink="http://www.w3.org/1999/xlink">
    <!-- Generator: Sketch 53 (72520) - https://sketchapp.com -->
    <title>brands / Swatch-m</title>
    <desc>Created with Sketch.</desc>
    <g id="brands-/-Swatch-m" stroke="none" stroke-width="1" fill="none" fill-rule="evenodd">
        <g id="swatch" transform="translate(31.000000, 26.000000)" fill-rule="nonzero">
            <path d="M109.630686,6.05905296 L127.40087,6.05704238 L127.396848,23.6663797 L109.617282,23.6663797 L109.630686,6.05905296 Z M110.78677,12.5451868 L110.78677,17.2553076 L116.237454,17.2553076 L116.237454,22.6383027 L120.875194,22.6383027 L120.875194,17.2553076 L126.232722,17.2553076 L126.232722,12.5451868 L120.875194,12.5451868 L120.885917,7.08578958 L116.237454,7.09249152 L116.237454,12.5451868 L110.78677,12.5451868 Z" id="Shape" fill="#888888"/>
            <path d="M0.336180638,23.6871557 L12.756879,23.6784432 C14.7651823,23.7796753 16.6684882,22.7762309 17.7196627,21.0620073 C18.5873161,19.6428423 18.7662213,17.9072869 18.2063189,16.3409661 C17.6464165,14.7746452 16.4078418,13.545787 14.83716,12.9982377 C14.2192415,12.7844459 13.5624517,12.6959804 12.9083427,12.6959804 L5.23261522,12.6979909 C4.59841949,12.7091606 3.99260688,12.435483 3.58177341,11.9522182 C3.17093994,11.4689534 2.99834533,10.8269881 3.11145241,10.2028601 C3.29397072,9.17793029 4.19372317,8.43722498 5.2346258,8.45499515 L17.793384,8.46504805 L17.793384,5.49005858 L5.14414966,5.50346245 C4.55638986,5.50413264 3.96863005,5.60801265 3.41639051,5.81041113 C2.86415097,6.0128096 2.34810188,6.31305634 1.89907216,6.69238593 C0.758625137,7.65788875 0.105850604,9.07999999 0.11724202,10.5742173 C0.128633437,12.0684346 0.803014244,13.480428 1.9580492,14.4284309 C2.41416012,14.8019144 2.93225258,15.0924908 3.48877142,15.2869489 C4.04666524,15.4759924 4.63218023,15.5706714 5.22122193,15.5670898 L12.750177,15.5691004 C13.0524344,15.5691004 13.3567023,15.6086418 13.6428749,15.7058199 C14.2221356,15.90334 14.7113011,16.3021395 15.0214632,16.8297346 C15.491453,17.6325688 15.491453,18.6265815 15.0214632,19.4294157 C14.8679889,19.6907912 14.667601,19.9240185 14.4330332,20.1150237 C13.9451323,20.5171399 13.3339157,20.6987624 12.750177,20.69072 L0.336180638,20.69072 L0.336180638,23.6871557 L0.336180638,23.6871557 Z M22.5283019,5.47397393 L19.6558521,5.47933548 L19.6545117,17.5320975 C19.6314208,18.263551 19.7392294,18.9932449 19.9728537,19.68677 C20.4456952,21.0844887 21.4087155,22.2636827 22.6837869,23.006239 C23.9594005,23.7466281 25.4596166,24.0010674 26.9080172,23.722676 C28.3564722,23.4422868 29.6541633,22.6462902 30.5605725,21.4822187 C31.0155897,22.0606616 31.5694573,22.5539464 32.1965151,22.9392196 C33.4635809,23.7111106 34.9659959,24.0015553 36.429458,23.757526 C37.1550907,23.6348638 37.8529915,23.3836196 38.4903034,23.0156217 C39.1272549,22.6467603 39.6932797,22.1672052 40.1617662,21.5995026 C40.6294728,21.030669 40.9919202,20.382939 41.2320654,19.68677 C41.4706544,18.9924494 41.5651517,18.2545662 41.5658219,17.5213744 L41.576545,5.48000567 L38.6216613,5.48000567 L38.6142892,17.7063479 C38.7081365,18.936399 38.1054121,20.1154511 37.0534082,20.75975 C36.3616013,21.181405 35.5388564,21.3338359 34.7419104,21.1880037 C34.3467424,21.1144849 33.9683422,20.9693482 33.6253679,20.75975 C33.2829024,20.5496072 32.9817285,20.2786415 32.7366911,19.960209 C32.2434844,19.3169705 32.0044286,18.5146304 32.0651571,17.7063479 L32.0638167,5.48000567 L29.1390918,5.48000567 L29.143113,17.7063479 C29.2079367,18.9350769 28.5906354,20.0996019 27.537329,20.735623 C26.8433345,21.1515084 26.0216311,21.3004108 25.2258313,21.154494 C24.4297119,21.0083011 23.714708,20.5755795 23.2159206,19.9380926 C22.7170433,19.3010011 22.4669268,18.5042015 22.5122173,17.696295 C22.5169086,13.6215178 22.5068557,9.54808094 22.5283019,5.47397393 L22.5283019,5.47397393 Z M59.4191097,23.6456037 L59.4191097,5.46794219 L52.1796782,5.47330374 C51.0497318,5.47397393 49.9164344,5.64085214 48.8561881,6.02956444 C44.406016,7.66023673 41.9405848,12.4220427 43.1776375,16.997283 C43.4737309,18.0911148 43.9697668,19.120679 44.6406702,20.0339303 C45.3125334,20.9461854 46.1476166,21.7260508 47.1036317,22.3340348 C48.5733663,23.2729761 50.3292736,23.7474731 52.0201721,23.8165031 C53.2275447,23.8523916 54.4300502,23.6485192 55.5581242,23.2166798 L55.5299761,20.2812317 C55.0548088,20.5419371 54.5602059,20.7302615 54.0635925,20.8716723 C53.8089189,20.9440532 53.5502242,21.0063812 53.0194308,21.0378803 C52.4893077,21.0700496 51.6870859,21.0707198 50.915693,20.9105436 C50.1386106,20.7447144 49.4009978,20.4299602 48.7435955,19.9836658 C48.0832044,19.5372194 47.5103137,18.973415 47.0533672,18.3202452 C46.1351509,17.0002913 45.738342,15.3870314 45.9395054,13.7917469 C46.2498954,11.3642617 47.9012229,9.31863765 50.2086388,8.50324909 C50.9579152,8.2391928 51.756786,8.13665318 52.5509655,8.13732337 L56.5841907,8.14000415 L56.5841907,23.6456037 L59.4191097,23.6456037 L59.4191097,23.6456037 Z M62.4403425,17.8477587 C62.3850149,19.4013704 62.9762854,20.908389 64.0733262,22.0098753 C65.1703669,23.1113617 66.674982,23.7087219 68.2288048,23.6596778 L72.1936702,23.6624764 L72.1936702,21.0680391 L69.2079577,21.0626775 C67.9624815,21.1003404 66.7782465,20.5226342 66.0412928,19.5178812 C65.5570199,18.8546706 65.299438,18.0530176 65.3067606,17.2318508 L65.3134626,8.23450145 L71.6333884,8.22444854 L71.6414307,5.46727199 L65.3141328,5.46727199 L65.3141328,0.692812653 L62.4450339,0.692812653 L62.4403425,17.8477587 L62.4403425,17.8477587 Z M87.8051604,9.0588396 C87.1429488,8.1242276 86.3149719,7.31896612 85.3623047,6.68300322 C83.4723587,5.40293341 81.0764165,4.91972381 78.8473525,5.22600229 C77.7546762,5.36305867 76.6931986,5.68462927 75.7081656,6.17700704 C73.7432199,7.17108626 72.1947859,8.83019059 71.3385032,10.8589797 C70.9256029,11.8550845 70.6788256,12.9121517 70.6079921,13.9881137 C70.4618762,16.0288277 70.9933481,18.060718 72.119949,19.7685336 C72.6762805,20.6097733 73.3654918,21.3551174 74.1606885,21.9754812 C74.9566232,22.5948296 75.8480038,23.0805845 76.799911,23.4137167 C77.7502455,23.7447924 78.7541956,23.9197129 79.7608264,23.9317764 C80.621465,24.0078284 81.4886901,23.9501792 82.3316891,23.760877 C84.9019374,23.1766867 87.0413217,21.4052695 88.094684,18.9890984 L86.1323571,17.1105457 C85.8800223,17.7825762 85.51439,18.4063953 85.0513348,18.9549186 C84.5879461,19.5026729 84.0325107,19.9653467 83.4100307,20.3221136 C82.1587792,21.0325188 80.6796618,21.3126597 79.274936,21.1538238 C78.5665414,21.0727304 77.872891,20.8743531 77.2274945,20.5714256 C75.9258822,19.9588863 74.8576804,18.9412378 74.1828049,17.6708276 C73.5058516,16.3926966 73.2742687,14.9253763 73.5246748,13.5008829 C73.774079,12.0692809 74.4776183,10.7559604 75.5312345,9.75517077 C76.5857119,8.75631958 77.9344294,8.1245049 79.3768055,7.95369032 C81.7442617,7.73585199 84.0591548,8.74141528 85.515779,10.6203907 L87.8051604,9.0588396 L87.8051604,9.0588396 Z M105.762998,13.2180612 C105.769087,12.195359 105.581715,11.1807303 105.210759,10.2276573 C104.83386,9.27667785 104.27497,8.40840556 103.565434,7.67153881 C102.855001,6.93537164 102.007962,6.34465208 101.071643,5.93238636 C98.1877067,4.66555608 94.8258155,5.24526529 92.5327062,7.40480175 L92.5273446,0.724981947 L89.548334,0.724981947 L89.5402917,23.6556566 L92.5273446,23.6509653 L92.5219831,13.3460682 C92.4679961,12.0952293 92.8694635,10.8672534 93.6519295,9.88987968 C94.0391751,9.40496994 94.5104451,8.99363022 95.0432515,8.67548885 C96.1188602,8.03587075 97.3894367,7.80665286 98.620745,8.03009239 C99.2313888,8.14186831 99.8170299,8.36227821 100.349845,8.6808504 C101.422557,9.32535127 102.226666,10.3353065 102.614429,11.5251521 C102.804087,12.1161397 102.887808,12.7359949 102.86173,13.3561211 L102.857709,23.6382316 L105.752946,23.6610182 L105.762998,13.2180612 L105.762998,13.2180612 Z M104.273158,1.47693919 C104.413228,1.49101325 104.567373,1.42533428 104.711465,1.56473455 C104.817355,1.73295315 104.744304,1.84420529 104.818696,2.0533057 L105.120953,2.0533057 C105.026456,1.85224761 105.128995,1.66258282 104.976861,1.44141893 C104.93529,1.40078614 104.88297,1.37288241 104.826068,1.36099569 C104.890406,1.34088988 104.93732,1.34491104 105.029136,1.24170123 C105.14191,1.08493901 105.122501,0.869156326 104.983563,0.735034851 C104.848854,0.601666321 104.670583,0.613729806 104.509736,0.611719226 L103.97023,0.612389419 L103.971571,2.05263551 L104.272488,2.05397589 L104.273158,1.47693919 L104.273158,1.47693919 Z M104.545927,0.154647178 C104.858861,0.154636069 105.1589,0.279330367 105.379648,0.501137278 C105.724127,0.858350477 105.816614,1.32547543 105.636332,1.78790903 C105.576014,1.92999007 105.488219,2.06134802 105.379648,2.17058958 C105.022434,2.5157393 104.55531,2.60822602 104.094216,2.42660355 C103.950979,2.3670468 103.820756,2.28007993 103.710866,2.17058958 C103.366386,1.81337638 103.27524,1.34558124 103.455522,0.883817835 C103.638595,0.443033435 104.068636,0.155458392 104.545927,0.154647178 Z M105.447337,2.23760894 C105.579365,2.13640971 105.659118,1.97824401 105.723457,1.82409948 C105.91979,1.34723387 105.810962,0.799131336 105.447337,0.433447723 C105.061306,0.0601498773 104.55598,-0.0397089719 104.057356,0.155987565 C103.903211,0.220326152 103.7618,0.314823452 103.643846,0.432777529 C103.270548,0.818809054 103.1727,1.32480524 103.366386,1.82409948 C103.430725,1.97824401 103.524552,2.11965487 103.643846,2.23760894 C104.029878,2.6102366 104.533863,2.71143583 105.033828,2.51439891 C105.188642,2.45073052 105.345468,2.37030728 105.447337,2.23760894 L105.447337,2.23760894 Z M104.547937,1.24304161 L104.273158,1.24170123 L104.273158,0.859020671 C104.427303,0.874435124 104.580777,0.806745569 104.751006,0.915316935 C104.841482,0.998420944 104.816685,1.1921069 104.665891,1.23097813 C104.627191,1.2396638 104.587595,1.24371344 104.547937,1.24304161 L104.547937,1.24304161 Z" id="Shape" fill="#3F3F3F"/>
        </g>
    </g>
</svg>