<svg width="190" height="80" viewBox="0 0 190 80" fill="none" xmlns="http://www.w3.org/2000/svg">
<g clip-path="url(#clip0)">
<path fill-rule="evenodd" clip-rule="evenodd" d="M60 50.1005V10.0069L129.362 10V50.1087L94.6846 70L60 50.1005Z" fill="black"/>
<path d="M61.8207 11.7668H61.7523V49.0763L94.654 67.9889L94.6678 68.0027H94.7133L127.562 49.0901L127.592 49.0763V11.782L61.8207 11.7668Z" fill="white"/>
<path fill-rule="evenodd" clip-rule="evenodd" d="M63.5807 13.5269V33.7216H125.773V13.5193L63.5807 13.5269Z" fill="#7A7A7A"/>
<path fill-rule="evenodd" clip-rule="evenodd" d="M63.5807 35.4893V48.037L94.6846 65.9103L125.773 48.0522V35.4893H63.5807Z" fill="#7A7A7A"/>
<path fill-rule="evenodd" clip-rule="evenodd" d="M78.7533 31.3473V19.1561H85.2093V15.9092H67.7153V19.1561H74.1712V31.3473H78.7533Z" fill="white"/>
<path fill-rule="evenodd" clip-rule="evenodd" d="M120.88 31.059C117.368 31.7417 112.846 31.939 109.584 30.6493C106.792 29.5948 105.078 27.0913 104.721 24.6409C104.349 21.6368 105.662 18.9967 108.469 17.2291C111.731 15.2188 116.92 15.287 120.478 16.6829V20.0437C117.785 18.974 113.734 18.056 111.147 19.7478C109.288 20.9692 108.719 22.9113 109.182 24.861C109.554 26.3858 111.086 27.7741 112.785 28.2748C113.992 28.6086 115.479 28.7148 116.821 28.5706V26.0748L115.046 26.0817V23.0775H120.88V31.059Z" fill="white"/>
<path fill-rule="evenodd" clip-rule="evenodd" d="M93.668 19.7403L90.8839 25.172H96.2626L93.668 19.7403ZM89.6246 28.3128L88.0845 31.3473H83.4114L90.9977 15.9092H96.2322L103.963 31.3473H99.2743L97.6584 28.3128H89.6246Z" fill="white"/>
<path d="M99.7598 59.8943V37.894L99.6458 37.78H97.4003L97.2863 37.894V58.5515L94.6842 59.9702L92.0745 58.5515V37.894L91.9605 37.78H89.715L89.6387 37.8102L89.601 37.8937V59.8939L89.6615 59.9924L94.6229 62.8449H94.7442L99.698 59.9924L99.7598 59.8943Z" fill="white"/>
<path d="M85.9679 57.8765H86.0741L86.1347 57.7781V55.3959L86.0741 55.2897L81.3175 52.6952V46.9372L85.5886 48.0296L85.6721 47.9156V45.5639L85.5659 45.4499L81.3175 44.5091V39.9346H86.021L86.135 39.8206V37.8938L86.021 37.7798H79.0416L78.9276 37.8938V53.7492L78.9804 53.8554L85.9679 57.8765Z" fill="white"/>
<path d="M110.919 53.4763V51.3294L110.859 51.2309L110.752 51.224L106.079 53.773V47.4385L110.434 46.3308L110.517 46.2168V44.1154L110.472 44.0242L110.403 43.9936L106.079 44.9419V39.935H110.798L110.912 39.821V37.894L110.798 37.78H103.826L103.712 37.894V57.4895L103.765 57.5957H103.886L110.858 53.575L110.919 53.4763Z" fill="white"/>
<path d="M73.0409 50.4494L74.9678 51.5645H75.089L75.142 51.4661V37.8942L75.028 37.7729H73.1011L72.987 37.8942V42.6736L68.3443 41.657V37.8942L68.2303 37.7729H66.3185L66.2428 37.8107L66.205 37.8942V46.4743L66.2655 46.5728L68.1697 47.6576H68.2837L68.3442 47.5592V43.6219L72.987 44.8054V50.3509L73.0409 50.4494Z" fill="white"/>
<path d="M116.692 39.9348H120.744C120.918 39.9348 121.062 40.0866 121.062 40.2686V41.2927C121.062 41.5279 121.024 41.6493 120.713 41.7252L116.692 42.6052V39.9348ZM114.568 51.3749H114.69L116.677 50.2521L116.691 50.2294V44.7293L117.859 44.4258L121.281 47.4907L121.432 47.5212L123.177 46.5047L123.23 46.429L123.224 46.3607L120.227 43.8192L122.344 43.2806C123.049 43.1061 123.163 42.7723 123.155 42.0592L123.148 38.5695C123.065 38.0688 122.693 37.7729 122.162 37.7729H114.629L114.515 37.917V51.2764L114.568 51.3749" fill="white"/>
</g>
<defs>
<clipPath id="clip0">
<rect width="69.3615" height="60" fill="white" transform="translate(60 10)"/>
</clipPath>
</defs>
</svg>
