<?xml version="1.0" encoding="UTF-8"?>
<svg width="190px" height="80px" viewBox="0 0 190 80" version="1.1" xmlns="http://www.w3.org/2000/svg" xmlns:xlink="http://www.w3.org/1999/xlink">
    <!-- Generator: Sketch 55.2 (78181) - https://sketchapp.com -->
    <title>brands / Flik-Flak-m</title>
    <desc>Created with Sketch.</desc>
    <g id="brands-/-Flik-Flak-m" stroke="none" stroke-width="1" fill="none" fill-rule="evenodd">
        <g id="flikflak-logo" transform="translate(33.000000, 20.000000)">
            <path d="M70.7456522,19.5569565 C65.8934783,19.6686957 61.3004348,19.5078261 61.2878261,19.536087 C61.2878261,19.536087 59.6869565,19.7078261 59.7873913,17.8804348 C59.8808696,16.0973913 62.3117391,16.4621739 62.3117391,16.4621739 C67.2965217,16.4595652 66.9752174,16.5082609 71.2213043,16.3504348 C71.8526087,12.736087 72.1343478,8.78608696 73.3221739,5.42478261 C74.1991304,3.48043478 75.7013043,1.44695652 77.8278261,0.727826087 C79.48,-0.0330434783 81.1886957,-0.0834782609 82.6486957,1.07217391 C82.6486957,1.07217391 83.6991304,2.07434783 83.156087,3.20956522 C82.3708696,4.83478261 81.0186957,3.55869565 81.0186957,3.55869565 C80.0173913,3.02434783 78.923913,3.44173913 78.0126087,4.08913043 C76.686087,5.1073913 76.2543478,6.6826087 75.7747826,8.08043478 C75.1830435,10.673913 74.7330435,13.5752174 74.5113043,16.31 C74.4773913,16.2830435 79.9,16.1547826 82.0434783,15.3821739 C82.9108696,11.6434783 83.3926087,7.52695652 85.3786957,4.32043478 C86.5713043,2.46608696 88.3486957,0.822608696 90.6052174,0.877391304 C91.876087,0.823043478 92.8756522,1.70043478 93.4317391,2.65782609 C94.5813043,6.0826087 93.2378261,9.7173913 91.3508696,12.4243478 C89.9195652,14.77 87.326087,16.4517391 84.8595652,17.5334783 L83.6747826,23.9004348 C83.7047826,23.8917391 92.4913043,17.2526087 94.7356522,16.3326087 C96.0626087,15.7626087 97.9317391,15.8891304 99.0378261,16.7417391 C99.3478261,16.9452174 99.7547826,17.436087 99.7604348,17.4104348 L100.177391,16.106087 C100.177391,16.106087 100.497391,14.4969565 102.180435,14.9908696 C103.462174,15.3665217 102.807826,16.9586957 102.807826,16.9586957 L100.846957,24.216087 L107.69,19.8426087 L111.826957,3.53304348 C111.826957,3.53304348 112.157391,1.56782609 113.861304,1.93 C115.558261,2.29130435 115.016522,3.80391304 115.016522,3.80391304 L111.300435,17.3986957 L118.729565,12.6691304 C118.729565,12.6691304 121.674783,10.2695652 122.837826,11.5082609 C123.98,12.7143478 122.352609,13.8552174 122.352609,13.8552174 L112.579565,20.263913 L117.77,28.9413043 C117.77,28.9413043 119.28,31.6204348 117.654783,32.0543478 C116.467391,32.3752174 114.541739,29.4078261 114.541739,29.4078261 L110.147826,21.7691304 L108.163043,29.4130435 C108.163043,29.4130435 107.156957,32.3943478 105.787826,32.0713043 C104.712609,31.8182609 104.94,30.3256522 104.94,30.3256522 L106.553478,23.6991304 C106.553478,23.6991304 98.3721739,29.6691304 96.693913,30.0126087 C95.0126087,30.3556522 97.2404348,26.653913 97.2404348,26.653913 C96.7947826,26.9330435 96.3591304,27.4117391 95.8404348,27.7356522 C94.3356522,28.9452174 92.413913,29.6604348 90.3486957,29.1356522 C89.1934783,28.7230435 88.666087,27.4030435 88.4086957,26.336087 C88.3004348,25.4482609 88.3834783,24.2913043 88.5182609,23.4926087 C88.5182609,23.4926087 80.7391304,30.85 79.9752174,29.6717391 C79.2091304,28.4943478 81.4956522,18.4391304 81.4956522,18.4391304 C79.1543478,18.9647826 76.4908696,19.2521739 74.0313043,19.376087 L71.9508696,34.9065217 C71.9508696,34.9065217 71.4104348,38.823913 69.8113043,38.5813043 C68.2295652,38.3330435 68.3891304,36.4291304 68.3891304,36.4291304 L70.7456522,19.5569565 L70.7456522,19.5569565 L70.7456522,19.5569565 Z M91.326087,25.8586957 C90.556087,25.1013043 90.8691304,23.9126087 91.1408696,23.083913 C92.156087,21.0917391 94.0156522,18.9182609 96.4513043,18.8356522 C97.0852174,18.94 97.7843478,19.1408696 98.1165217,19.8017391 C98.6752174,21.1721739 97.7895652,22.5569565 97.0478261,23.6621739 C95.53,25.14 93.5217391,27.3 91.326087,25.8586957 L91.326087,25.8586957 L91.326087,25.8586957 Z M84.9643478,14.3234783 C84.9873913,14.3430435 85.3865217,11.5804348 86.4973913,7.98565217 C86.9386957,6.62 87.6434783,5.11913043 89.0221739,4.29130435 C89.466087,4.14478261 90.0682609,4.20304348 90.4043478,4.52826087 C91.2365217,5.29782609 90.8469565,6.62434783 90.666087,7.59391304 C89.8547826,10.3673913 87.7095652,13.0847826 84.9643478,14.3234783 L84.9643478,14.3234783 L84.9643478,14.3234783 Z" id="Shape" fill="#3F3F3F"></path>
            <path d="M38.9682609,7.36130435 C38.5626087,6.54608696 38.5282609,5.31043478 38.9991304,4.51043478 C39.3413043,3.55652174 40.5943478,2.16173913 41.953913,1.92043478 C42.543913,1.86782609 43.14,2.02434783 43.48,2.44608696 C43.9908696,3.00347826 44.2204348,3.64086957 44.1830435,4.42347826 C44.0134783,5.93347826 42.943913,7.44521739 41.4404348,7.97391304 C40.6278261,8.19913043 39.5417391,8.12782609 38.9682609,7.36130435 L38.9682609,7.36130435 L38.9682609,7.36130435 Z M12.4682609,19.3982609 L1.66,19.5569565 C1.66,19.5569565 -0.072173913,19.6913043 0.00217391304,17.6595652 C0.0760869565,15.7295652 3.52391304,16.08 3.52391304,16.08 L13.166087,15.896087 C13.9382609,11.9630435 14.4013043,7.46826087 16.0782609,3.88217391 C17.2495652,1.87086957 19.3843478,0.0947826087 21.823913,0.00739130435 C23.0665217,-0.0373913043 23.6326087,0.30826087 24.6395652,1.00086957 C24.6395652,1.00086957 25.7256522,2.13 25.2,3.02652174 C24.5491304,4.13217391 23.0334783,3.97826087 23.0334783,3.97826087 C21.9721739,3.56130435 21.4356522,3.43695652 20.4578261,4.08086957 C18.5030435,4.90043478 17.9508696,6.93391304 17.6286957,8.86521739 C17.2247826,11.1482609 16.4995652,15.9286957 16.523913,15.9369565 C16.4991304,15.9286957 23.4417391,15.676087 24.0526087,15.2969565 C25.0569565,11.2378261 25.8386957,7.26608696 27.8356522,3.8726087 C29.0286957,2.14043478 30.8665217,0.712173913 33.0534783,1.15521739 C34.0191304,1.3373913 34.9565217,1.85695652 35.443913,2.79043478 C36.6295652,5.14826087 35.6269565,8.08565217 34.7721739,10.3078261 C33.2782609,13.5165217 30.2973913,16.573913 26.946087,17.8865217 C26.3817391,20.4573913 25.9430435,23.2217391 25.9313043,23.1973913 C25.9313043,23.1973913 36.7130435,14.2078261 38.4843478,14.9708696 C40.3008696,15.6786957 36.9717391,22.3065217 36.9717391,22.3065217 L45.5747826,17.0026087 L49.6808696,1.6773913 C49.6808696,1.6773913 50.3656522,-0.0347826087 51.5026087,0.000869565217 C52.6386957,0.0373913043 52.62,1.86478261 52.62,1.86478261 L49.3952174,14.7834783 L56.536087,10.12 C56.536087,10.12 58.2565217,8.52434783 59.5343478,9.32521739 C61.0943478,10.3034783 59.4534783,11.7065217 59.4534783,11.7065217 L50.3869565,17.4986957 C50.3869565,17.4986957 57.9773913,28.8517391 57.8330435,28.6217391 C57.2,27.6213043 59.0391304,29.6486957 57.56,30.39 C56.0752174,31.1413043 54.49,29.0095652 54.49,29.0095652 L48.103913,19.5178261 L45.7473913,27.4495652 C45.7473913,27.4495652 45.1913043,29.2413043 43.9869565,28.966087 C42.3595652,28.5934783 42.9943478,26.9282609 42.9943478,26.9282609 L44.51,20.9386957 C44.51,20.9386957 33.6778261,28.593913 32.3769565,28.0204348 C31.076087,27.4465217 33.7686957,21.1752174 33.7686957,21.1752174 C33.7686957,21.1752174 22.9565217,30.7443478 21.99,29.7965217 C21.0178261,28.856087 22.9986957,22.4652174 23.5052174,18.7895652 C21.0952174,19.1291304 15.963913,19.3630435 15.973913,19.3621739 L13.5221739,35.3978261 C13.5221739,35.3978261 12.7756522,39.9104348 10.7486957,39.8874793 C9.2673913,39.8678261 9.77434783,36.33 9.77434783,36.33 L12.4682609,19.3982609 L12.4682609,19.3982609 L12.4682609,19.3982609 Z M27.5791304,13.9482609 C27.9413043,11.4626087 28.6473913,9.04478261 29.4826087,6.81043478 C29.8330435,5.79782609 30.3221739,4.89782609 31.2630435,4.3473913 C31.6478261,4.1573913 32.2113043,4.10434783 32.5769565,4.3673913 C33.5947826,5.16826087 32.9143478,6.63130435 32.76,7.57956522 C31.8956522,10.1286957 30.196087,12.8265217 27.5695652,14.0165217 L27.5791304,13.9482609 L27.5791304,13.9482609 L27.5791304,13.9482609 Z" id="Shape" fill="#7A7A7A"></path>
        </g>
    </g>
</svg>