<svg width="17" height="20" fill="none" xmlns="http://www.w3.org/2000/svg"><path d="M16.648 19.891H0v-.481c0-3.008 3.732-5.455 8.32-5.455 4.59 0 8.328 2.447 8.328 5.455v.481zM.998 18.93h14.65c-.394-2.252-3.531-4.011-7.328-4.011-3.794 0-6.927 1.759-7.321 4.01zM8.323 12.511c-3.21 0-5.82-2.626-5.82-5.855C2.504 3.427 5.114.8 8.324.8c3.208 0 5.819 2.627 5.819 5.856s-2.61 5.856-5.82 5.856zm0-10.748c-2.681 0-4.863 2.195-4.863 4.893s2.182 4.893 4.863 4.893c2.68 0 4.862-2.195 4.862-4.893s-2.181-4.893-4.862-4.893z" fill="#121212"/></svg>