<?xml version="1.0" encoding="UTF-8"?>
<svg width="190px" height="80px" viewBox="0 0 190 80" version="1.1" xmlns="http://www.w3.org/2000/svg" xmlns:xlink="http://www.w3.org/1999/xlink">
    <!-- Generator: Sketch 53 (72520) - https://sketchapp.com -->
    <title>brands / Longines-m</title>
    <desc>Created with Sketch.</desc>
    <g id="brands-/-Longines-m" stroke="none" stroke-width="1" fill="none" fill-rule="evenodd" opacity="0.75">
        <g id="longines" transform="translate(35.000000, 28.000000)">
            <path d="M29.7469079,4.44614742 C31.0818904,6.69828848 30.9772739,10.140361 29.5383169,12.3090657 C27.8073324,15.062467 24.9287765,16.5842186 21.6959368,16.271653 C18.8385609,16.0425238 16.0434414,13.8109209 15.0004864,11.119776 C13.8323767,8.17896373 14.5833044,4.65409661 16.8778054,2.46421193 C19.0471519,0.274327261 22.4468644,-0.518318569 25.3664967,0.608072873 C27.119303,1.23448772 28.8496457,2.75688116 29.7469079,4.44614742 Z M59.989395,1.21394952 L60.5323734,0.608714692 L62.0342286,0.608714692 L62.0342286,6.40754471 L59.7814458,6.40754471 C59.7814458,5.00966405 59.3225455,3.75875982 58.1544359,2.92375397 C56.8611717,1.96423533 54.7547234,2.06885175 53.4197409,2.90321578 C51.3338309,4.34217282 50.7292378,6.78236671 51.0418034,9.22320241 C51.3338309,11.0793415 52.3556059,13.061277 54.2534631,13.853281 C55.8387548,14.500234 57.7988685,14.1664884 58.9669781,12.8520441 C59.3771001,12.6363931 59.3007237,11.4894635 59.3007237,10.8078522 C59.2720136,10.4317505 59.0279695,10.1063584 58.6749507,9.97348822 C58.1955123,9.76489721 57.5485593,9.89005181 56.9856844,9.84833361 L56.9856844,8.07563095 L64.3473425,8.07563095 L64.3473425,9.84833361 C63.6804931,9.86951362 62.8666672,9.74435902 62.5958198,10.4529266 L62.5021143,10.953545 L62.5021143,15.9584456 L60.1761641,15.9584456 L59.8007003,15.1035434 C57.6525338,16.7722714 53.9396139,16.5842186 51.6245746,15.3326726 C48.8300969,13.8937155 47.3070617,10.9946214 47.5368327,7.86639813 C47.6619873,4.77925121 49.9147702,1.79672071 52.8138643,0.691509276 C55.0043908,-0.267367541 57.9869213,0.0451980612 59.989395,1.21394952 Z M117.784508,1.65166973 C117.971277,1.31792412 118.200406,0.984178506 118.368563,0.629894702 C118.733115,0.629894702 119.223465,0.608714692 119.661185,0.608714692 L119.661185,6.28174829 L117.784508,6.28174829 C117.616351,4.86397125 116.866707,3.42437239 115.489365,2.81977937 C114.279537,2.29862276 112.528656,2.15228815 111.401623,2.92375397 C110.901646,3.27867959 110.609619,3.758118 110.609619,4.34217282 C110.609619,4.90504763 110.922826,5.38512786 111.401623,5.71887347 C111.985678,6.0737991 112.632631,6.24003009 113.32066,6.34528832 C115.740316,6.90816313 118.827463,6.97106134 119.849238,9.74500084 C120.329318,11.4759853 120.100189,13.5407154 118.827463,14.8551596 C117.179273,16.5848604 114.384795,16.5848604 112.194911,16.0219856 C111.318828,15.7723182 110.505003,15.3962126 109.712998,14.9790306 L109.336893,15.9590874 L107.835038,15.9590874 L107.835038,9.89005181 L109.712998,9.89005181 C109.754075,11.2667525 110.29577,12.5388367 111.547958,13.3103025 C112.84058,14.1664884 114.780797,14.6253886 116.282653,13.853281 C117.03358,13.4360989 117.575275,12.6229149 117.429582,11.7044727 C117.0124,9.97348822 115.114543,9.99402641 113.737842,9.6602808 C111.569138,9.20138058 108.774018,9.03450777 108.001269,6.49033929 C107.563548,4.65538024 107.981372,2.73634297 109.524304,1.52651513 C111.400981,0.0458398797 114.529846,-0.121032927 116.656833,0.942460304 C117.053477,1.1298713 117.408402,1.38018051 117.784508,1.65166973 Z M8.28513956,2.38141735 C7.45077553,2.48603376 6.3455641,2.06885175 5.86548387,2.96547217 C5.65689286,3.27803777 5.63635467,3.69521979 5.65689286,4.09186361 L5.65689286,14.1664884 C7.88913756,14.0413338 10.8922063,14.7922614 11.7676467,12.2050911 C12.0808541,11.349547 12.0391359,10.348952 12.0391359,9.36825338 L13.7495821,9.36825338 L13.7495821,15.9590874 L0.00439745947,15.9590874 L0.00439745947,14.1664884 C0.797685108,14.1453084 1.71548554,14.3333612 2.15320575,13.5824336 C2.38233495,13.1857897 2.39324586,12.6851713 2.39324586,12.2050911 L2.39324586,3.06944677 C2.33034765,2.69398295 1.92407655,2.48539194 1.59033094,2.42313555 C1.08971252,2.36087916 0.526195888,2.40195554 0.00503927795,2.38141735 L0.00503927795,0.608714692 L8.28513956,0.608714692 L8.28513956,2.38141735 Z M43.1994234,10.6197994 L43.2199616,10.6403376 L43.2199616,3.9038108 C43.1577052,3.38265419 42.8862159,2.84031757 42.3650593,2.56882835 C41.8849791,2.33969915 41.3015661,2.40195554 40.7380495,2.38141735 L40.7380495,0.608714692 L47.6626291,0.608714692 L47.6626291,2.38141735 C47.0368561,2.40195554 46.3276467,2.27744275 45.9316447,2.79859936 C45.4939245,3.29921778 45.4727444,3.9801872 45.4727444,4.63355842 L45.4727444,15.9584456 L42.8444977,15.9584456 L35.1073759,5.07192044 L35.0861959,5.05074043 L35.1073759,12.9977369 C35.1073759,13.4701153 35.3365051,13.8526391 35.7536871,14.0605883 C36.2748437,14.2698212 36.9217968,14.1658466 37.5263898,14.1658466 L37.5263898,15.9584456 L30.4561173,15.9584456 L30.4561173,14.1664884 C31.1512068,14.1664884 32.1248454,14.3044794 32.4168728,13.6652281 C32.6104898,13.2925579 32.7004828,12.8747334 32.6774511,12.4554003 L32.6774511,3.82037439 C32.5728347,3.36147418 32.4168728,2.90257396 31.9579726,2.63172656 C31.5407906,2.36087916 30.9779158,2.38141735 30.4561173,2.38141735 L30.4561173,0.608714692 L36.3172037,0.608714692 L43.1994234,10.6197994 Z M86.4984239,10.6197994 L86.5196039,10.6403376 L86.5196039,3.9038108 C86.4567057,3.38265419 86.1858583,2.84031757 85.6647017,2.56882835 C85.1846214,2.33969915 84.6005666,2.40195554 84.0376918,2.38141735 L84.0376918,0.608714692 L90.9622714,0.608714692 L90.9622714,2.38141735 C90.3364984,2.40195554 89.627289,2.27744275 89.231287,2.79859936 C88.7935668,3.29921778 88.7723868,3.9801872 88.7723868,4.63355842 L88.7723868,15.9584456 L86.1434982,15.9584456 L78.4063764,5.07192044 L78.3851964,5.05074043 L78.4063764,12.9977369 C78.4063764,13.4701153 78.6355056,13.8526391 79.0520458,14.0605883 C79.5732024,14.2698212 80.2201554,14.1658466 80.8260321,14.1658466 L80.8260321,15.9584456 L73.754476,15.9584456 L73.754476,14.1664884 C74.4502073,14.1664884 75.4232041,14.3044794 75.7152315,13.6652281 C75.9091478,13.2926657 75.9991586,12.8747583 75.9758098,12.4554003 L75.9758098,3.82037439 C75.8718352,3.36147418 75.7152315,2.90257396 75.2563313,2.63172656 C74.8391493,2.36087916 74.2762744,2.38141735 73.754476,2.38141735 L73.754476,0.608714692 L79.6162042,0.608714692 L86.4984239,10.6197994 Z M72.4823918,2.38141735 C71.7115678,2.36087916 70.7937673,2.23508273 70.3554053,2.98601036 C70.1474561,3.34093599 70.1570834,3.7998362 70.1359034,4.23755641 L70.1359034,12.8719405 C70.1782634,13.3308407 70.3765853,13.7685609 70.7937673,13.9976901 C71.2937439,14.2698212 71.919517,14.1228447 72.4823918,14.1857429 L72.4823918,15.9584456 L64.5777553,15.9584456 L64.5777553,14.1664884 C65.2869647,14.1863848 66.1007906,14.3121812 66.6007672,13.7493064 C66.81,13.457279 66.8927946,13.1228915 66.9139746,12.7686077 L66.9139746,3.6746816 C66.8510764,3.23696139 66.6848454,2.75688116 66.2471252,2.52775196 C65.947396,2.38141735 65.130361,2.38141735 64.5886662,2.38141735 L64.5886662,0.608714692 L72.4823918,0.608714692 L72.4823918,2.38141735 Z M106.396081,7.01149591 L104.602198,7.01149591 C104.707456,5.32222965 104.519403,3.65350159 103.017548,2.77741935 C102.600366,2.54829016 102.120286,2.42249373 101.619667,2.38077553 L97.4638927,2.38077553 L97.4638927,6.9903159 C98.5017132,6.9903159 99.8309193,7.0737523 100.325761,6.28110647 C100.554891,5.73941167 100.493918,5.04047134 100.493918,4.40442922 L102.099748,4.40442922 L102.099748,11.5793181 L100.493918,11.5793181 C100.451558,10.6826976 100.639611,9.6602808 99.7847083,9.15966238 C99.2834481,8.89908407 98.2668076,8.90935317 97.4645345,8.90935317 L97.4645345,14.1658466 L102.308339,14.1658466 C103.143344,14.1029484 104.018143,13.7268427 104.373069,12.8931205 C104.707456,12.0799365 104.602198,10.7244158 104.602198,9.5665753 L106.396081,9.5665753 L106.396081,15.9584456 L91.8588919,15.9584456 L91.8588919,14.1664884 C92.6727177,14.1241284 93.6527745,14.3744376 94.0917784,13.5394317 C94.2586512,13.1228915 94.2470984,12.6428113 94.2470984,12.1633729 L94.2470984,3.69521979 C94.2470984,3.24145412 94.0077002,2.79859936 93.5699799,2.54829016 C93.0687197,2.29798095 92.4217667,2.42313555 91.8588919,2.38141735 L91.8588919,0.608714692 L106.396081,0.608714692 L106.396081,7.01149591 Z M25.9300134,4.0289654 C25.241984,3.04890857 24.2612853,2.42313555 23.1766121,2.25626274 C21.4456276,2.00595354 19.9020542,2.81977937 19.0259719,4.30045462 C17.6704513,6.49033929 17.6492713,9.95295003 19.0471519,12.1216547 C19.7980796,13.3725589 21.0701638,14.2075648 22.5303009,14.1863848 C24.2195671,14.270463 25.7631406,13.0394551 26.4094518,11.5375999 C27.4947668,9.30599699 27.3484322,6.05197727 25.9300134,4.0289654 Z" id="Combined-Shape" fill="#000000" fill-rule="nonzero"/>
            <path d="M53.4197409,18.4211031 C53.8157429,19.0250543 54.1918486,19.6508273 54.5878506,20.2560622 L55.7347802,18.4211031 L64.0148805,18.4211031 C64.4108825,19.0250543 64.7459117,19.6508273 65.1618101,20.2560622 L66.3087398,18.4307304 L88.6254103,18.4307304 L85.4766488,20.6308842 L81.1379559,20.6308842 L79.0520458,22.1128431 L74.9643039,22.1128431 L72.8584974,23.7385693 L68.7277536,23.7385693 L66.7259218,25.2404245 L63.3262093,25.2404245 L63.3262093,29.9962995 L56.407406,29.9962995 L56.407406,25.2513355 L53.0230971,25.2513355 L51.0000852,23.7385693 L46.8911633,23.7385693 L44.763535,22.1128431 L40.6969731,22.1128431 L38.611063,20.6308842 L34.2518319,20.6308842 L31.1229667,18.4211031 L53.4197409,18.4211031 Z" id="Path" fill="#000000"/>
            <path d="M54.5454906,21.5069664 C55.1295454,20.7149624 55.6301638,19.8382383 56.2142186,19.0250543 L63.5553385,19.0250543 C64.0983169,19.8600602 64.6611917,20.6937824 65.2035283,21.5281464 L66.72528,19.0250543 L86.7269112,19.0250543 L85.0581832,19.9839311 L73.1492412,19.9839311 C72.8982902,20.2348822 72.6280846,20.4126659 72.3572372,20.6623333 L79.698357,20.6623333 L78.6143256,21.5486846 L69.0409611,21.5486846 L68.3529316,22.1853685 L73.754476,22.1853685 L72.5446482,23.103169 L65.6001722,23.103169 L64.8492445,23.7597493 L67.5179258,23.7809293 L66.3709962,24.6146515 L63.3262093,24.6146515 L63.3262093,20.1617149 L56.407406,20.1617149 L56.407406,24.6146515 L53.3780227,24.6146515 C53.0025589,24.3226241 52.6059151,24.0729567 52.2516313,23.7809293 L54.9004162,23.7809293 C54.7130052,23.5299783 54.3792596,23.3637473 54.1494886,23.1127963 L47.2249089,23.1127963 C46.8162929,22.8139665 46.4129548,22.5079859 46.0150811,22.1949958 L51.3749072,22.1949958 C51.2080344,21.9870466 50.937187,21.7360956 50.707416,21.5480428 L41.1346933,21.5480428 C40.7617245,21.261821 40.3932752,20.9697576 40.0294819,20.6719606 L47.3917817,20.6719606 L47.3917817,20.6520642 L46.5991359,19.9839311 L34.6895521,19.9839311 L33.042004,19.0250543 L53.0230971,19.0250543 L54.5454906,21.5069664 L54.5454906,21.5069664 Z" id="Path" fill="#FFFFFF"/>
            <path d="M61.7415594,21.9459702 L58.0703577,21.9459702 L57.1942754,20.6937824 L62.5964616,20.6937824 L61.7415594,21.9459702 L61.7415594,21.9459702 Z M59.5722129,24.9907571 L57.0697627,28.4944443 L57.0697627,21.610941 C57.8829467,22.7379743 58.7583871,23.8438275 59.5722129,24.9907571 L59.5722129,24.9907571 Z M60.2814224,24.9695771 C61.01117,23.8438275 61.8461758,22.7379743 62.6381798,21.6115828 L62.6381798,28.244135 L60.2814224,24.9695771 Z M59.9476768,24.4894969 L58.5292579,22.5717433 L61.283301,22.5717433 L59.9476768,24.4894969 Z M58.4458215,27.5869129 L59.9059585,25.4496574 L61.428352,27.5869129 L58.4458215,27.5869129 Z M61.8673558,28.2235969 C62.2011015,28.6195989 62.5130252,29.04705 62.8262327,29.443052 L57.0697627,29.443052 L57.9246649,28.2235969 L61.8673558,28.2235969 Z" id="Shape" fill="#FFFFFF" fill-rule="nonzero"/>
        </g>
    </g>
</svg>